<?xml version="1.0" standalone="no"?>
<!DOCTYPE svg PUBLIC "-//W3C//DTD SVG 20010904//EN"
 "http://www.w3.org/TR/2001/REC-SVG-20010904/DTD/svg10.dtd">
<svg version="1.0" xmlns="http://www.w3.org/2000/svg"
 width="512.000000pt" height="512.000000pt" viewBox="0 0 512.000000 512.000000"
 preserveAspectRatio="xMidYMid meet">

<g transform="translate(0.000000,512.000000) scale(0.100000,-0.100000)"
fill="#000000" stroke="none">
<path d="M905 4743 c-20 -60 -232 -675 -471 -1367 l-435 -1260 3 -795 3 -796
26 -55 c49 -104 145 -174 262 -191 82 -11 4452 -11 4534 0 117 17 213 87 262
191 l26 55 3 796 3 795 -435 1260 c-239 692 -451 1307 -471 1367 l-37 107
-1618 0 -1618 0 -37 -107z m3571 -1318 c233 -676 424 -1231 424 -1232 0 -2
-281 -3 -625 -3 -502 0 -632 -3 -658 -13 -48 -20 -95 -64 -120 -111 -20 -38
-22 -58 -25 -269 l-4 -228 -25 -10 c-33 -12 -1733 -12 -1766 0 l-25 10 -4 228
c-3 211 -5 231 -25 269 -25 47 -72 91 -120 111 -26 10 -156 13 -658 13 -344 0
-625 1 -625 3 0 1 814 2366 845 2455 4 10 308 12 1496 10 l1491 -3 424 -1230z
m-3028 -1428 c6 -7 12 -98 14 -232 3 -208 4 -222 26 -264 13 -24 38 -57 55
-73 65 -59 47 -58 1017 -58 977 0 954 -1 1019 62 71 70 76 89 79 333 2 134 8
225 14 232 8 10 144 13 639 13 l629 0 0 -713 0 -713 -23 -44 c-13 -27 -35 -50
-57 -62 -33 -17 -127 -18 -2300 -18 -2173 0 -2267 1 -2300 18 -22 12 -44 35
-57 62 l-23 44 0 713 0 713 629 0 c495 0 631 -3 639 -13z"/>
<path d="M1280 4115 l0 -275 90 0 90 0 2 183 3 182 1095 0 1095 0 3 -182 2
-183 90 0 90 0 0 275 0 275 -1280 0 -1280 0 0 -275z"/>
<path d="M1010 3385 l0 -275 90 0 90 0 0 180 0 180 1370 0 1370 0 0 -180 0
-180 90 0 90 0 0 275 0 275 -1550 0 -1550 0 0 -275z"/>
<path d="M737 2923 c-4 -3 -7 -127 -7 -275 l0 -268 90 0 90 0 0 180 0 180
1650 0 1650 0 0 -180 0 -180 90 0 90 0 -2 273 -3 272 -1821 3 c-1001 1 -1824
-1 -1827 -5z"/>
</g>
</svg>
